<svg width="24" height="24" viewBox="0 0 24 24" fill="none" xmlns="http://www.w3.org/2000/svg">
<path d="M8.15807 6.50039C7.37405 7.13532 6.74119 7.94099 6.30647 8.85761C5.87174 9.77425 5.64631 10.7783 5.6469 11.7953C5.65003 14.2754 5.0872 16.7228 4.00239 18.946M13.3588 22.8C14.9615 19.3593 16.0156 13.3496 15.779 11.7953C15.4865 9.87286 14.5653 8.3367 12.3436 8.3367C9.79797 8.3367 9.02226 10.9233 9.02226 12.0222M22.1751 18.3063C22.5896 16.1614 22.7988 13.9809 22.7999 11.7953C22.7999 8.98526 21.6983 6.29026 19.7373 4.30327C17.7762 2.31628 15.1165 1.2 12.3433 1.2C9.56997 1.2 6.91026 2.31628 4.94925 4.30327C2.98824 6.29026 1.88656 8.9852 1.88656 11.7952C1.88766 13.1888 1.65552 14.5725 1.20001 15.8873M6.56605 21.2387C7.62597 19.3958 8.37963 17.3889 8.79686 15.2982M18.8153 15.502C18.9671 14.2727 19.0421 13.0338 19.0396 11.795C19.0396 9.99556 18.334 8.26985 17.0783 6.99746C15.8226 5.72511 14.1195 5.01016 12.3436 5.01016C12.0639 5.00821 11.7844 5.02441 11.5067 5.05865M18.1192 19.2073C17.9423 19.8884 17.7415 20.5703 17.5295 21.2387M9.81194 22.2963C11.1456 19.8871 12.3487 15.8952 12.3487 11.8321" stroke="#191A23" stroke-width="2" stroke-linecap="round" stroke-linejoin="round"/>
</svg>
