<svg width="21" height="21" viewBox="0 0 21 21" fill="none" xmlns="http://www.w3.org/2000/svg">
<path d="M4.35294 19.4412L13.8529 10.5L18.3235 14.9706M4.35294 19.4412H15.5294C17.3812 19.4412 18.8824 17.94 18.8824 16.0882V9.38237M4.35294 19.4412C2.50116 19.4412 1 17.94 1 16.0882V4.91178C1 3.06 2.50116 1.55884 4.35294 1.55884H11.6176M20 6.02943L17.7647 3.79413M17.7647 3.79413L15.5294 1.55884M17.7647 3.79413L15.5294 6.02943M17.7647 3.79413L20 1.55884M7.70588 6.58825C7.70588 7.51414 6.9553 8.26472 6.02941 8.26472C5.10352 8.26472 4.35294 7.51414 4.35294 6.58825C4.35294 5.66236 5.10352 4.91178 6.02941 4.91178C6.9553 4.91178 7.70588 5.66236 7.70588 6.58825Z" stroke="black" stroke-width="2" stroke-linecap="round" stroke-linejoin="round"/>
</svg>
