<svg width="26" height="26" viewBox="0 0 26 26" fill="none" xmlns="http://www.w3.org/2000/svg">
<path d="M20.4825 20.7243L19.9504 19.8776L20.4825 20.7243ZM21.053 19.6607H20.053H21.053ZM11.7995 24.6145L11.2392 25.4427L11.7995 24.6145ZM14.2249 24.6568L14.757 25.5035L14.2249 24.6568ZM1.28321 8.22847L0.747621 7.384H0.747621L1.28321 8.22847ZM1.28322 9.28948L0.747622 10.134H0.747622L1.28322 9.28948ZM13.5941 16.3438L14.1297 17.1883L13.5941 16.3438ZM12.4059 16.3438L12.9415 15.4993L12.4059 16.3438ZM24.7168 8.22847L25.2524 7.384L24.7168 8.22847ZM24.7168 9.28947L24.1812 8.445L24.7168 9.28947ZM6.05711 20.7297L6.61744 19.9015L6.05711 20.7297ZM13.5941 1.17412L13.0585 2.01859L13.5941 1.17412ZM12.4059 1.17412L12.9415 2.01859L12.4059 1.17412ZM25.8376 8.73841C25.8376 8.18613 25.3899 7.73841 24.8376 7.73841C24.2853 7.73841 23.8376 8.18613 23.8376 8.73841H25.8376ZM23.8376 15.4081C23.8376 15.9604 24.2853 16.4081 24.8376 16.4081C25.3899 16.4081 25.8376 15.9604 25.8376 15.4081H23.8376ZM13.0585 2.01859L24.1812 9.07295L25.2524 7.384L14.1297 0.329642L13.0585 2.01859ZM24.1812 8.445L13.0585 15.4993L14.1297 17.1883L25.2524 10.134L24.1812 8.445ZM1.81881 9.07295L12.9415 2.01859L11.8703 0.329641L0.747621 7.384L1.81881 9.07295ZM12.9415 15.4993L6.05473 11.1316L4.98355 12.8205L11.8703 17.1883L12.9415 15.4993ZM6.05473 11.1316L1.81881 8.445L0.747622 10.134L4.98355 12.8205L6.05473 11.1316ZM4.51914 11.976V19.6874H6.51914V11.976H4.51914ZM5.49679 21.558L11.2392 25.4427L12.3598 23.7862L6.61744 19.9015L5.49679 21.558ZM14.757 25.5035L21.0146 21.571L19.9504 19.8776L13.6928 23.8102L14.757 25.5035ZM22.053 19.6607L22.053 11.976H20.053L20.053 19.6607H22.053ZM21.0146 21.571C21.6753 21.1557 22.053 20.4223 22.053 19.6607H20.053C20.053 19.7731 19.9968 19.8485 19.9504 19.8776L21.0146 21.571ZM11.2392 25.4427C12.3034 26.1626 13.6689 26.1873 14.757 25.5035L13.6928 23.8102C13.2776 24.0711 12.769 24.063 12.3598 23.7862L11.2392 25.4427ZM0.747621 7.384C-0.24921 8.01622 -0.249205 9.50173 0.747622 10.134L1.81881 8.445C1.95506 8.53142 2 8.66668 2 8.75897C2 8.85127 1.95506 8.98653 1.81881 9.07295L0.747621 7.384ZM13.0585 15.4993C13.0357 15.5138 13.016 15.5179 13 15.5179C12.984 15.5179 12.9643 15.5138 12.9415 15.4993L11.8703 17.1883C12.5633 17.6278 13.4367 17.6278 14.1297 17.1883L13.0585 15.4993ZM24.1812 9.07295C24.0449 8.98653 24 8.85127 24 8.75897C24 8.66668 24.0449 8.53142 24.1812 8.445L25.2524 10.134C26.2492 9.50173 26.2492 8.01622 25.2524 7.384L24.1812 9.07295ZM4.51914 19.6874C4.51914 20.4242 4.87251 21.1357 5.49679 21.558L6.61744 19.9015C6.57164 19.8705 6.51914 19.7956 6.51914 19.6874H4.51914ZM14.1297 0.329642C13.4367 -0.109879 12.5633 -0.109882 11.8703 0.329641L12.9415 2.01859C12.9643 2.00414 12.984 2 13 2C13.016 2 13.0357 2.00414 13.0585 2.01859L14.1297 0.329642ZM23.8376 8.73841V15.4081H25.8376V8.73841H23.8376Z" fill="black"/>
</svg>
