<svg width="20" height="21" viewBox="0 0 20 21" fill="none" xmlns="http://www.w3.org/2000/svg">
<path d="M4.375 19.5L13.9375 10.5L18.4375 15M4.375 19.5H15.625C17.489 19.5 19 17.989 19 16.125V10.5M4.375 19.5C2.51104 19.5 1 17.989 1 16.125V4.875C1 3.01104 2.51104 1.5 4.375 1.5H11.6875M14.5 3.78991L16.8009 1.5M16.8009 1.5L19 3.6864M16.8009 1.5V7.125M7.75 6.5625C7.75 7.49448 6.99448 8.25 6.0625 8.25C5.13052 8.25 4.375 7.49448 4.375 6.5625C4.375 5.63052 5.13052 4.875 6.0625 4.875C6.99448 4.875 7.75 5.63052 7.75 6.5625Z" stroke="black" stroke-width="2" stroke-linecap="round" stroke-linejoin="round"/>
</svg>
