<svg width="41" height="43" viewBox="0 0 41 43" fill="none" xmlns="http://www.w3.org/2000/svg">
<path d="M30.7501 28.2145C33.2373 29.4944 35.3696 31.5484 36.9261 34.1168C37.2344 34.6255 37.3885 34.8798 37.4418 35.232C37.55 35.9476 37.0723 36.8274 36.4216 37.1106C36.1015 37.25 35.7413 37.25 35.0209 37.25M27.3334 20.6814C29.8647 19.3928 31.6043 16.717 31.6043 13.625C31.6043 10.533 29.8647 7.85719 27.3334 6.56858M23.9168 13.625C23.9168 17.9742 20.4749 21.5 16.2293 21.5C11.9836 21.5 8.54175 17.9742 8.54175 13.625C8.54175 9.27576 11.9836 5.75 16.2293 5.75C20.4749 5.75 23.9168 9.27576 23.9168 13.625ZM4.37211 33.6421C7.09571 29.453 11.3936 26.75 16.2293 26.75C21.0649 26.75 25.3628 29.453 28.0864 33.6421C28.6831 34.5598 28.9814 35.0187 28.9471 35.6049C28.9203 36.0613 28.6283 36.62 28.2723 36.8958C27.815 37.25 27.1862 37.25 25.9286 37.25H6.52995C5.2723 37.25 4.64347 37.25 4.18625 36.8958C3.83025 36.62 3.5382 36.0613 3.51145 35.6049C3.47711 35.0187 3.77544 34.5598 4.37211 33.6421Z" stroke="white" stroke-width="3" stroke-linecap="round" stroke-linejoin="round"/>
</svg>
