<svg width="235" height="211" viewBox="0 0 235 211" fill="none" xmlns="http://www.w3.org/2000/svg">
<path d="M159.547 111.335L216.789 71.7622C223.981 67.8278 228.866 70.1508 229.379 78.6642L229.622 161.488C229.784 169.33 223.482 171.546 217.477 167.786L159.547 125.622V111.335ZM159.547 111.335V84.1429C159.547 68.4159 146.997 55.6667 131.516 55.6667H117.5M61.4375 55.6667H33.4063C17.925 55.6667 5.375 68.4159 5.375 84.1429V155.333C5.375 171.06 17.925 183.81 33.4063 183.81H131.516C137.398 183.81 142.857 181.969 147.365 178.824M173.563 205.167L26.3984 5.83333" stroke="white" stroke-width="10" stroke-linecap="round" stroke-linejoin="round"/>
</svg>
